<?xml version="1.0" standalone="no"?>
<!DOCTYPE svg PUBLIC "-//W3C//DTD SVG 20010904//EN"
 "http://www.w3.org/TR/2001/REC-SVG-20010904/DTD/svg10.dtd">
<svg version="1.0" xmlns="http://www.w3.org/2000/svg"
 width="700.000000pt" height="700.000000pt" viewBox="0 0 700.000000 700.000000"
 preserveAspectRatio="xMidYMid meet">
<metadata>
Created by potrace 1.11, written by Peter Selinger 2001-2013
</metadata>
<g transform="translate(0.000000,700.000000) scale(0.100000,-0.100000)"
fill="#000000" stroke="none">
<path d="M1418 5065 c-2 -2 -28 -7 -58 -10 -30 -3 -71 -10 -90 -15 -19 -5 -46
-11 -60 -14 -137 -28 -308 -99 -450 -185 -41 -25 -79 -49 -85 -53 -5 -5 -35
-27 -65 -50 -74 -56 -235 -219 -290 -293 -148 -198 -261 -458 -296 -679 -3
-21 -8 -48 -11 -60 -9 -40 -10 -321 -2 -386 50 -378 201 -684 465 -945 209
-207 519 -373 784 -421 14 -2 35 -6 46 -9 85 -19 365 -25 479 -11 158 20 361
83 516 161 244 122 479 338 627 575 30 49 107 202 121 240 10 31 13 32 53 27
24 -3 50 -8 58 -11 93 -36 522 -43 673 -12 44 9 82 18 86 20 14 9 28 -10 50
-66 102 -254 339 -531 596 -696 171 -110 408 -202 580 -226 22 -3 68 -10 103
-14 71 -10 302 -8 377 3 525 74 973 394 1208 861 78 156 133 343 156 529 8 68
7 330 -2 370 -2 11 -8 43 -11 70 -24 169 -116 406 -220 570 -113 176 -280 349
-446 462 -197 134 -419 219 -670 258 -84 13 -388 14 -440 2 -14 -4 -41 -8 -60
-10 -166 -20 -451 -137 -619 -255 -276 -194 -485 -465 -592 -769 -26 -74 -66
-236 -74 -299 -4 -27 -9 -57 -11 -66 -10 -36 -183 -67 -343 -62 -134 4 -146 6
-261 34 -80 20 -86 23 -88 48 -1 15 -7 52 -12 82 -82 431 -307 784 -660 1032
-130 91 -385 207 -510 232 -14 3 -61 13 -105 22 -72 15 -435 30 -447 19z m326
-800 c301 -66 533 -293 607 -595 26 -104 21 -296 -11 -395 -67 -211 -202 -371
-397 -473 -384 -199 -868 -46 -1063 336 -66 131 -85 213 -85 372 2 362 261
676 625 754 65 14 262 15 324 1z m3801 4 c102 -17 117 -22 220 -70 74 -35 87
-44 149 -94 331 -267 390 -739 136 -1080 -116 -154 -308 -270 -500 -301 -55
-9 -210 -10 -268 -1 -92 14 -254 83 -332 142 -150 112 -260 281 -304 467 -18
75 -16 276 4 353 20 78 95 231 142 288 134 165 324 276 513 299 57 8 190 6
240 -3z"/>
</g>
</svg>
